<?xml version="1.0" encoding="UTF-8"?>
<svg id="Layer_2" data-name="Layer 2" xmlns="http://www.w3.org/2000/svg" viewBox="0 0 308.73 411.05">
  <defs>
    <style>
      .cls-1 {
        fill: #d6df24;
      }

      .cls-1, .cls-2 {
        stroke-width: 0px;
      }

      .cls-2 {
        fill: #fff;
      }
    </style>
  </defs>
  <g id="Layer_1-2" data-name="Layer 1">
    <g>
      <path class="cls-2" d="m160.71,0h-12.69C66.39,0,0,66.4,0,148.02v115.01c0,81.62,66.39,148.02,148.02,148.02h12.69c81.63,0,148.02-66.4,148.02-148.02v-115.01C308.73,66.4,242.33,0,160.71,0Zm118.32,263.03c0,65.24-53.07,118.32-118.32,118.32h-12.69c-65.25,0-118.32-53.08-118.32-118.32v-115.01c0-65.24,53.07-118.32,118.32-118.32h12.69c65.25,0,118.32,53.08,118.32,118.32v115.01Z"/>
      <path class="cls-1" d="m155.69,115.6l-97.95,73.08,15.23,20.4,6.53-4.88v62.12h147.47v-62.36l6.28,4.93,15.72-20.02-93.28-73.27Zm45.82,125.26h-96.55v-55.65l50.33-37.55,46.22,36.3v56.9Z"/>
      <path class="cls-2" d="m200.51,321.98c0,7.03-5.7,12.73-12.73,12.73h-69.08c-7.03,0-12.73-5.7-12.73-12.73s5.7-12.73,12.73-12.73h69.08c7.03,0,12.73,5.71,12.73,12.73Z"/>
    </g>
  </g>
</svg>